<?xml version="1.0" standalone="no"?>
<!DOCTYPE svg PUBLIC "-//W3C//DTD SVG 20010904//EN"
 "http://www.w3.org/TR/2001/REC-SVG-20010904/DTD/svg10.dtd">
<svg version="1.0" xmlns="http://www.w3.org/2000/svg"
 width="70.000000pt" height="70.000000pt" viewBox="0 0 70.000000 70.000000"
 preserveAspectRatio="xMidYMid meet">
<metadata>
Created by potrace 1.14, written by Peter Selinger 2001-2017
</metadata>
<g transform="translate(0.000000,70.000000) scale(0.100000,-0.100000)"
fill="#000000" stroke="none">
<path d="M335 672 c-6 -4 -11 -15 -12 -24 -2 -42 -4 -48 -13 -48 -5 0 -10 9
-10 20 0 11 -4 20 -10 20 -9 0 -27 -27 -29 -45 -1 -5 -14 -10 -29 -10 -15 0
-27 -6 -28 -12 -1 -7 -3 -14 -4 -15 -8 -8 -5 -65 3 -76 11 -14 47 -7 59 11 7
12 97 19 113 9 6 -4 12 -7 15 -8 3 0 17 -4 33 -8 28 -9 50 2 67 34 13 25 -5
44 -42 45 -24 0 -32 4 -30 15 2 8 5 23 7 33 2 9 7 22 10 27 12 20 -12 9 -35
-15 -28 -29 -40 -32 -35 -7 4 24 -18 63 -30 54z"/>
<path d="M268 469 c-23 -13 -23 -44 1 -77 10 -15 21 -39 25 -54 8 -36 21 -35
34 2 13 37 8 82 -14 115 -18 28 -21 29 -46 14z m22 -35 c0 -8 -5 -12 -10 -9
-6 4 -8 11 -5 16 9 14 15 11 15 -7z"/>
<path d="M355 440 c3 -14 7 -32 8 -40 3 -25 -23 -110 -33 -110 -6 0 -10 -5
-10 -12 0 -6 -18 -39 -40 -72 -47 -74 -70 -126 -65 -152 2 -10 4 -22 4 -26 2
-15 31 -8 57 15 14 12 29 22 32 21 4 0 12 4 18 10 6 6 54 40 107 75 94 63 107
77 88 96 -5 6 -24 46 -42 89 -37 90 -74 136 -108 133 -19 -1 -21 -6 -16 -27z"/>
<path d="M200 425 c-7 -8 -19 -15 -26 -15 -24 0 -3 -28 29 -39 38 -14 57 0 36
25 -12 16 -12 17 1 9 9 -5 8 0 -4 13 -23 26 -20 26 -36 7z"/>
<path d="M223 317 c-32 -38 -34 -63 -6 -78 22 -12 27 -11 42 8 12 14 16 32 13
57 -5 42 -20 46 -49 13z"/>
</g>
</svg>
